Coordinates
version=1
nRows=21
nColumns=28
inDegrees=yes

Units are S.I. units (second, meters, Newtons, ...)
Angles are in degrees.

endheader
time	pelvis_tilt	pelvis_list	pelvis_rotation	pelvis_tx	pelvis_ty	pelvis_tz	hip_flexion_r	hip_adduction_r	hip_rotation_r	knee_angle_r	ankle_angle_r	subtalar_angle_r	mtp_angle_r	hip_flexion_l	hip_adduction_l	hip_rotation_l	knee_angle_l	socket_flexion	socket_adduction	socket_rotation	socket_tx	socket_ty	socket_tz	foot_flex	lumbar_extension	lumbar_bending	lumbar_rotation
      0.32500000	      5.99787138	     -3.27914323	     -7.86472333	     -0.42527887	      1.01761911	      0.28742604	     11.67240157	      5.28644243	      5.79638715	    -63.60152293	      4.12590799	    -13.82836461	     27.42485513	     -0.27956841	     -1.54021452	    -12.65320602	    -19.44463842	      0.00000000	      0.00000000	      0.00000000	      0.00000000	     -0.00702444	      0.00000000	      2.30469721	    -15.34899253	     -1.19729167	      7.51509816
      0.32916667	      6.02581888	     -3.29186580	     -7.79310248	     -0.42063419	      1.01800069	      0.28712867	     12.22402882	      5.36539059	      5.78858563	    -63.17959174	      4.24357581	    -13.81378127	     27.44366884	     -0.62332012	     -1.48834502	    -12.62327726	    -19.37701595	      0.00000000	      0.00000000	      0.00000000	      0.00000000	     -0.00682039	      0.00000000	      2.39352320	    -15.44585354	     -1.17927791	      7.48625423
      0.33333333	      6.02185580	     -3.67563859	     -7.42974353	     -0.41528741	      1.01841917	      0.28625839	     12.54849014	      5.75307464	      5.48220181	    -62.45102295	      5.18052371	    -13.02414123	     27.69196485	     -1.06018151	     -1.81924262	    -12.21589615	    -19.18959166	      0.00000000	      0.00000000	      0.00000000	      0.00000000	     -0.00718675	      0.00000000	      2.55753079	    -15.43132486	     -0.55456545	      6.88484223
      0.33750000	      6.05182738	     -3.66961332	     -7.37145437	     -0.41080192	      1.01872872	      0.28604718	     13.10930101	      5.80604949	      5.47083150	    -62.00937425	      5.25806215	    -13.03051699	     27.69635251	     -1.38169055	     -1.75937346	    -12.21057758	    -19.15255556	      0.00000000	      0.00000000	      0.00000000	      0.00000000	     -0.00700363	      0.00000000	      2.62337299	    -15.55464782	     -0.57424195	      6.86964084
      0.34166667	      6.04160687	     -3.71866031	     -7.27814829	     -0.40565699	      1.01911899	      0.28575837	     13.54126185	      5.91366939	      5.47454228	    -61.34561017	      5.54079644	    -13.02706458	     27.72634773	     -1.77416770	     -1.74609873	    -12.13682589	    -18.97069364	      0.00000000	      0.00000000	      0.00000000	      0.00000000	     -0.00678677	      0.00000000	      2.78972348	    -15.48861210	     -0.49100310	      6.80735948
      0.34583333	      6.03247504	     -3.84274505	     -7.15562950	     -0.40084764	      1.01941319	      0.28545854	     14.00307104	      6.10507305	      5.42333118	    -60.70488778	      5.88433836	    -12.98951231	     27.76054705	     -2.12080374	     -1.82927152	    -12.04395643	    -18.86050734	      0.00000000	      0.00000000	      0.00000000	      0.00000000	     -0.00675526	      0.00000000	      2.89209456	    -15.52110641	     -0.31294029	      6.70478425
      0.35000000	      6.02689650	     -3.93331594	     -7.03909240	     -0.39601661	      1.01969140	      0.28517799	     14.45513272	      6.25055910	      5.36596169	    -60.03949740	      6.12729718	    -12.95043776	     27.76965181	     -2.46820749	     -1.87576915	    -11.95654993	    -18.75214453	      0.00000000	      0.00000000	      0.00000000	      0.00000000	     -0.00666989	      0.00000000	      3.00450933	    -15.54296623	     -0.16977913	      6.60981895
      0.35416667	      6.02614525	     -4.26363187	     -6.77498978	     -0.39122793	      1.01990341	      0.28458033	     14.83836809	      6.60658465	      5.12465458	    -59.28002239	      6.55409999	    -12.80177408	     27.71977331	     -2.82265495	     -2.18290114	    -11.68941984	    -18.66608942	      0.00000000	      0.00000000	      0.00000000	      0.00000000	     -0.00703300	      0.00000000	      3.09010050	    -15.63752826	      0.30819965	      6.28806840
      0.35833333	      6.02750349	     -4.24558829	     -6.70128377	     -0.38645343	      1.02013912	      0.28439836	     15.29382531	      6.62495605	      5.09779104	    -58.59375638	      6.63375290	    -12.80448266	     27.68868641	     -3.16070568	     -2.11364177	    -11.65584390	    -18.55864837	      0.00000000	      0.00000000	      0.00000000	      0.00000000	     -0.00678856	      0.00000000	      3.20676597	    -15.65903785	      0.29570601	      6.23691742
      0.36250000	      6.01506873	     -4.26961909	     -6.61006965	     -0.38162399	      1.02032476	      0.28417358	     15.72502559	      6.68447695	      5.05661881	    -57.85336149	      6.76708087	    -12.82359055	     27.65365378	     -3.49681126	     -2.09190208	    -11.59973894	    -18.44696319	      0.00000000	      0.00000000	      0.00000000	      0.00000000	     -0.00664430	      0.00000000	      3.32170962	    -15.66260034	      0.33794982	      6.17405109
      0.36666667	      6.00572243	     -4.58305509	     -6.32369794	     -0.37679690	      1.02049103	      0.28362718	     16.05641954	      7.01243382	      4.80001446	    -56.96488443	      7.02298077	    -12.90974923	     27.37644967	     -3.84172462	     -2.39459213	    -11.30678643	    -18.34914422	      0.00000000	      0.00000000	      0.00000000	      0.00000000	     -0.00697473	      0.00000000	      3.42452247	    -15.72490832	      0.80303488	      5.83838552
      0.37083333	      5.99333250	     -4.55940387	     -6.26199818	     -0.37205134	      1.02061177	      0.28350188	     16.48476006	      7.02134582	      4.76911450	    -56.19930204	      7.10868062	    -12.94867243	     27.31850253	     -4.16332761	     -2.32644153	    -11.28971105	    -18.24473585	      0.00000000	      0.00000000	      0.00000000	      0.00000000	     -0.00676664	      0.00000000	      3.53499347	    -15.73404923	      0.77661568	      5.79991962
      0.37500000	      5.96213858	     -4.58321543	     -6.16863665	     -0.36726544	      1.02069803	      0.28332773	     16.88814695	      7.08195420	      4.72478712	    -55.36307152	      7.23238901	    -13.02117034	     27.23739025	     -4.47166216	     -2.31310303	    -11.23431440	    -18.13465359	      0.00000000	      0.00000000	      0.00000000	      0.00000000	     -0.00665036	      0.00000000	      3.64798890	    -15.72646983	      0.81752414	      5.74883305
      0.37916667	      5.92968527	     -4.61610392	     -6.08258350	     -0.36252766	      1.02075017	      0.28315830	     17.29149574	      7.14245362	      4.66524769	    -54.51358137	      7.34830503	    -13.10899162	     27.15138754	     -4.77614885	     -2.31493425	    -11.17778058	    -18.03950483	      0.00000000	      0.00000000	      0.00000000	      0.00000000	     -0.00656404	      0.00000000	      3.75591840	    -15.72429776	      0.87349133	      5.69877893
      0.38333333	      5.85875867	     -4.96735701	     -5.78651740	     -0.35768119	      1.02075814	      0.28261409	     17.60309043	      7.50826240	      4.40796561	    -53.46155643	      7.45829222	    -13.54054922	     26.62716459	     -5.05203588	     -2.67865621	    -10.88069678	    -17.95419784	      0.00000000	      0.00000000	      0.00000000	      0.00000000	     -0.00697665	      0.00000000	      3.86839149	    -15.70907193	      1.37883215	      5.43016565
      0.38750000	      5.82847010	     -4.90675927	     -5.74272710	     -0.35297434	      1.02075762	      0.28252830	     17.99651399	      7.46938782	      4.38562536	    -52.58817513	      7.52461967	    -13.60336903	     26.54143263	     -5.34689511	     -2.57649072	    -10.88454490	    -17.86057502	      0.00000000	      0.00000000	      0.00000000	      0.00000000	     -0.00677150	      0.00000000	      3.97583966	    -15.70236180	      1.31016981	      5.40097078
      0.39166667	      5.77510140	     -4.91753253	     -5.65559269	     -0.34830136	      1.02070242	      0.28239765	     18.36613427	      7.51236032	      4.35696275	    -51.63918862	      7.62006537	    -13.74846434	     26.38067735	     -5.61254709	     -2.56283473	    -10.81634820	    -17.77685733	      0.00000000	      0.00000000	      0.00000000	      0.00000000	     -0.00669015	      0.00000000	      4.08653269	    -15.68475110	      1.32681520	      5.35700715
      0.39583333	      5.72057685	     -4.90834958	     -5.58440532	     -0.34358151	      1.02063623	      0.28228193	     18.73327279	      7.52658859	      4.29855521	    -50.68185552	      7.70711405	    -13.87936344	     26.25153795	     -5.88045445	     -2.52541458	    -10.79552156	    -17.69288381	      0.00000000	      0.00000000	      0.00000000	      0.00000000	     -0.00654964	      0.00000000	      4.19571916	    -15.65291852	      1.33650095	      5.32685544
      0.40000000	      5.63797997	     -4.96301402	     -5.46639041	     -0.33889363	      1.02052732	      0.28212298	     19.07070838	      7.61758750	      4.25185636	    -49.62542793	      7.79235783	    -14.11127915	     26.02734846	     -6.10935458	     -2.56613805	    -10.68930281	    -17.62304900	      0.00000000	      0.00000000	      0.00000000	      0.00000000	     -0.00654789	      0.00000000	      4.30895225	    -15.60711787	      1.41614254	      5.27840872
      0.40416667	      5.47780505	     -5.27283780	     -5.20460696	     -0.33408810	      1.02035062	      0.28173104	     19.39462009	      7.96444312	      4.05969493	    -48.41121143	      7.68924733	    -15.01679367	     24.94681859	     -6.26965339	     -2.91185371	    -10.42443945	    -17.57366825	      0.00000000	      0.00000000	      0.00000000	      0.00000000	     -0.00691106	      0.00000000	      4.42630500	    -15.48435335	      1.87857413	      5.03522841
      0.40833333	      5.42123314	     -5.17475128	     -5.18259700	     -0.32943355	      1.02017271	      0.28168982	     19.73902926	      7.87930982	      4.04864796	    -47.40778481	      7.78059236	    -15.08051559	     24.82203395	     -6.52152241	     -2.77667177	    -10.45651869	    -17.49922055	      0.00000000	      0.00000000	      0.00000000	      0.00000000	     -0.00672439	      0.00000000	      4.52911773	    -15.45426465	      1.75906564	      5.02743517
